# xmcd CD database file
#
# Track frame offsets:
#	187
#	96367
#	121085
#	148190
#	176777
#
# Disc length: 2873 seconds
#
# Revision: 6
# Processed by: cddbd v1.5PL3 Copyright (c) Steve Scherf et al.
# Submitted via: CDex 1.51
#
DISCID=440b3705
DTITLE=ﾌ､ﾃﾎ - ﾌ､ﾃﾎ
DYEAR=1900
DGENRE=
TTITLE0=･ﾈ･鬣ﾃ･ｯ 1
TTITLE1=･ﾈ･鬣ﾃ･ｯ 2
TTITLE2=･ﾈ･鬣ﾃ･ｯ 3
TTITLE3=･ﾈ･鬣ﾃ･ｯ 4
TTITLE4=･ﾈ･鬣ﾃ･ｯ 5
EXTD=
EXTT0=
EXTT1=
EXTT2=
EXTT3=
EXTT4=
PLAYORDER=
